<svg width="34" height="34" viewBox="0 0 34 34" fill="none" xmlns="http://www.w3.org/2000/svg">
<path d="M7.78293 17.0641C6.92283 15.8451 6.58218 14.3344 6.83592 12.8643C7.08966 11.3942 7.91701 10.0851 9.13595 9.22501C10.3549 8.36491 11.8656 8.02426 13.3357 8.278C14.8058 8.53174 16.1149 9.35908 16.975 10.578C17.0897 10.7406 17.1351 10.942 17.1013 11.138C17.0674 11.334 16.9571 11.5086 16.7946 11.6232C16.6321 11.7379 16.4306 11.7833 16.2346 11.7495C16.0386 11.7157 15.8641 11.6054 15.7494 11.4428C15.1186 10.5489 14.1586 9.94222 13.0806 9.75614C12.0025 9.57007 10.8946 9.81988 10.0008 10.4506C9.10686 11.0814 8.50014 12.0414 8.31407 13.1194C8.12799 14.1975 8.3778 15.3054 9.00854 16.1992C9.12322 16.3618 9.16864 16.5632 9.13481 16.7592C9.10098 16.9552 8.99067 17.1298 8.82814 17.2445C8.66561 17.3591 8.46419 17.4046 8.26817 17.3707C8.07216 17.3369 7.89761 17.2266 7.78293 17.0641ZM20.8852 12.8674C20.5275 13.1193 20.2386 13.4569 20.0451 13.8492C19.7463 13.625 19.4032 13.4672 19.0385 13.3862C18.6739 13.3053 18.2962 13.3031 17.9307 13.3797C17.5651 13.4564 17.2201 13.6102 16.9188 13.8309C16.6174 14.0515 16.3666 14.3339 16.1831 14.6593L14.5238 12.3076C14.1224 11.7388 13.5115 11.3527 12.8254 11.2343C12.1394 11.1159 11.4344 11.2748 10.8656 11.6762C10.2967 12.0776 9.91062 12.6885 9.79221 13.3746C9.6738 14.0606 9.83277 14.7656 10.2341 15.3344L14.5582 21.4625L13.9342 21.1994C13.3011 20.9096 12.5788 20.8831 11.9261 21.1259C11.2735 21.3686 10.744 21.8607 10.4542 22.4938C10.1644 23.1269 10.1379 23.8492 10.3807 24.5019C10.6234 25.1545 11.1155 25.684 11.7486 25.9738L16.697 28.2191C16.7873 28.2671 16.8865 28.2961 16.9884 28.3044C17.0904 28.3127 17.1929 28.3 17.2898 28.2672C17.3867 28.2344 17.4758 28.1821 17.5517 28.1136C17.6276 28.045 17.6887 27.9617 17.7313 27.8687C17.7738 27.7757 17.7968 27.6749 17.799 27.5727C17.8011 27.4704 17.7824 27.3688 17.7438 27.2741C17.7052 27.1794 17.6477 27.0935 17.5748 27.0219C17.5018 26.9502 17.415 26.8942 17.3196 26.8573L12.3734 24.6104C12.2366 24.5502 12.1131 24.4634 12.0103 24.355C11.9074 24.2466 11.8272 24.1187 11.7742 23.9789C11.7213 23.8392 11.6968 23.6902 11.7021 23.5409C11.7074 23.3915 11.7423 23.2447 11.805 23.109C11.8677 22.9733 11.9567 22.8514 12.067 22.7506C12.1773 22.6497 12.3066 22.5718 12.4473 22.5214C12.588 22.4711 12.7374 22.4492 12.8866 22.4572C13.0359 22.4653 13.182 22.5029 13.3166 22.5681L13.3397 22.5781L16.3921 23.8665C16.5424 23.9302 16.7093 23.9433 16.8676 23.9036C17.026 23.8639 17.167 23.7736 17.2694 23.6465C17.3718 23.5194 17.4299 23.3623 17.4349 23.1992C17.4399 23.036 17.3916 22.8757 17.2972 22.7425L11.4598 14.4696C11.2877 14.2259 11.2196 13.9237 11.2704 13.6297C11.3211 13.3357 11.4866 13.0739 11.7304 12.9018C11.9741 12.7298 12.2763 12.6617 12.5703 12.7124C12.8643 12.7632 13.1261 12.9286 13.2982 13.1724L16.9736 18.3813C17.0883 18.5438 17.2628 18.6541 17.4588 18.6879C17.6548 18.7218 17.8563 18.6764 18.0188 18.5617C18.1813 18.447 18.2916 18.2724 18.3255 18.0764C18.3593 17.8804 18.3139 17.679 18.1992 17.5165L17.5506 16.5973C17.3786 16.3535 17.3104 16.0513 17.3612 15.7573C17.4119 15.4633 17.5774 15.2015 17.8212 15.0295C18.065 14.8574 18.3671 14.7893 18.6611 14.84C18.9552 14.8908 19.217 15.0563 19.389 15.3001L20.47 16.8321C20.5847 16.9946 20.7592 17.1049 20.9552 17.1387C21.1513 17.1726 21.3527 17.1271 21.5152 17.0125C21.6777 16.8978 21.7881 16.7232 21.8219 16.5272C21.8557 16.3312 21.8103 16.1298 21.6956 15.9673L21.4794 15.6609C21.3074 15.4171 21.2393 15.1149 21.29 14.8209C21.3408 14.5269 21.5062 14.2651 21.75 14.093C21.9938 13.921 22.2959 13.8529 22.59 13.9036C22.884 13.9544 23.1458 14.1199 23.3178 14.3637L25.2636 17.1213C26.4317 18.7766 26.6818 20.2856 26.6837 20.2981C26.7137 20.4946 26.8205 20.6713 26.9807 20.7891C27.1408 20.907 27.3413 20.9564 27.5379 20.9265C27.6532 20.9095 27.7629 20.8655 27.858 20.7981C27.9719 20.7178 28.0612 20.6074 28.1159 20.4793C28.1706 20.3511 28.1885 20.2103 28.1676 20.0725C28.1565 19.9966 27.8726 18.2154 26.49 16.2559L24.5442 13.4983C24.3454 13.2166 24.0931 12.9768 23.8016 12.7926C23.5101 12.6084 23.1852 12.4835 22.8454 12.4249C22.5056 12.3663 22.1576 12.3752 21.8213 12.4512C21.4849 12.5271 21.1669 12.6686 20.8852 12.8674Z" fill="white"/>
</svg>
