{
  "accessors": [
    {
      "bufferView": 2,
      "componentType": 5126,
      "count": 56914,
      "max": [
        0.9786402583122253,
        1.1127207279205322,
        0.9885472059249878
      ],
      "min": [
        -0.9786402583122253,
        -1.7839608192443848,
        -0.9885472059249878
      ],
      "type": "VEC3"
    },
    {
      "bufferView": 2,
      "byteOffset": 682968,
      "componentType": 5126,
      "count": 56914,
      "max": [
        0.9999801516532898,
        0.9999949336051941,
        0.9999985098838806
      ],
      "min": [
        -0.999980092048645,
        -1.0,
        -0.9999985098838806
      ],
      "type": "VEC3"
    },
    {
      "bufferView": 1,
      "componentType": 5126,
      "count": 56914,
      "max": [
        0.7535578012466431,
        0.8847309350967407
      ],
      "min": [
        0.25,
        0.6249999403953552
      ],
      "type": "VEC2"
    },
    {
      "bufferView": 0,
      "componentType": 5125,
      "count": 307200,
      "type": "SCALAR"
    }
  ],
  "asset": {
    "extras": {
      "author": "Mastart (https://sketchfab.com/mastart)",
      "license": "CC-BY-4.0 (http://creativecommons.org/licenses/by/4.0/)",
      "source": "https://sketchfab.com/3d-models/molar-tooth-d74050eb1a4b4092bb92b61cd6a273bd",
      "title": "Molar_Tooth"
    },
    "generator": "Sketchfab-12.78.0",
    "version": "2.0"
  },
  "bufferViews": [
    {
      "buffer": 0,
      "byteLength": 1228800,
      "name": "floatBufferViews",
      "target": 34963
    },
    {
      "buffer": 0,
      "byteLength": 455312,
      "byteOffset": 1228800,
      "byteStride": 8,
      "name": "floatBufferViews",
      "target": 34962
    },
    {
      "buffer": 0,
      "byteLength": 1365936,
      "byteOffset": 1684112,
      "byteStride": 12,
      "name": "floatBufferViews",
      "target": 34962
    }
  ],
  "buffers": [
    {
      "byteLength": 3050048,
      "uri": "scene.bin"
    }
  ],
  "materials": [
    {
      "doubleSided": true,
      "name": "Material.001",
      "pbrMetallicRoughness": {
        "baseColorFactor": [
          0.687532,
          0.687532,
          0.687532,
          1.0
        ],
        "metallicFactor": 0.058306213872272195,
        "roughnessFactor": 0.16507873188228367
      }
    }
  ],
  "meshes": [
    {
      "name": "Object_0",
      "primitives": [
        {
          "attributes": {
            "NORMAL": 1,
            "POSITION": 0,
            "TEXCOORD_0": 2
          },
          "indices": 3,
          "material": 0,
          "mode": 4
        }
      ]
    }
  ],
  "nodes": [
    {
      "children": [
        1
      ],
      "matrix": [
        1.0,
        2.8327693431939985e-16,
        1.60812262295773e-16,
        0.0,
        1.6081226229577292e-16,
        2.2204460492503136e-16,
        -1.0,
        0.0,
        -2.832769343193999e-16,
        1.0,
        2.220446049250313e-16,
        0.0,
        -9.50730955821908e-17,
        4.930383008620025e-32,
        -2.220447108041497e-16,
        1.0
      ],
      "name": "Sketchfab_model"
    },
    {
      "children": [
        2
      ],
      "name": "root"
    },
    {
      "children": [
        3
      ],
      "matrix": [
        1.0,
        0.0,
        0.0,
        0.0,
        0.0,
        2.220446049250313e-16,
        1.0,
        0.0,
        0.0,
        -1.0,
        2.220446049250313e-16,
        0.0,
        0.0,
        0.0,
        0.0,
        1.0
      ],
      "name": "GLTF_SceneRootNode"
    },
    {
      "children": [
        4
      ],
      "name": "Cube_0"
    },
    {
      "mesh": 0,
      "name": "Object_4"
    }
  ],
  "scene": 0,
  "scenes": [
    {
      "name": "Sketchfab_Scene",
      "nodes": [
        0
      ]
    }
  ]
}
